<svg version="1.2" xmlns="http://www.w3.org/2000/svg" viewBox="0 0 17 11" width="17" height="11">
	<title>left-arrow-big-svg</title>
	<style>
		.s0 { fill: #ffffff } 
	</style>
	<g id="Layer">
		<path id="Layer" class="s0" d="m0.8 6.4q-0.2-0.2-0.2-0.5q0-0.3 0.2-0.5q0.2-0.2 0.5-0.2h13.3l-3.2-3.2q-0.2-0.2-0.2-0.5q0-0.3 0.2-0.5q0.2-0.2 0.5-0.2q0.3 0 0.5 0.2l4.4 4.4q0.1 0.1 0.1 0.2q0.1 0.2 0.1 0.3q0 0.2-0.1 0.3q0 0.1-0.1 0.2l-4.4 4.4q-0.2 0.2-0.5 0.2q-0.3-0.1-0.4-0.3q-0.2-0.2-0.3-0.4q0-0.3 0.2-0.5l3.2-3.2h-13.3q-0.3 0-0.5-0.2z" />
	</g>
</svg>